<?xml version="1.0" standalone="no"?>
<!DOCTYPE svg PUBLIC "-//W3C//DTD SVG 20010904//EN"
 "http://www.w3.org/TR/2001/REC-SVG-20010904/DTD/svg10.dtd">
<svg version="1.0" xmlns="http://www.w3.org/2000/svg"
 width="470.000000pt" height="199.000000pt" viewBox="0 0 470.000000 199.000000"
 preserveAspectRatio="xMidYMid meet">
<metadata>
Created by potrace 1.16, written by Peter Selinger 2001-2019
</metadata>
<g transform="translate(0.000000,199.000000) scale(0.100000,-0.100000)"
fill="#000000" stroke="none">
<path d="M1544 1401 c-12 -5 -31 -22 -43 -37 -19 -24 -21 -39 -21 -166 l0
-140 -47 50 c-65 69 -141 103 -246 109 -104 7 -193 -15 -263 -63 l-52 -35 -29
30 c-46 45 -124 64 -252 59 -95 -3 -112 -7 -160 -33 -67 -37 -124 -101 -153
-174 -20 -49 -23 -74 -23 -196 0 -136 1 -142 32 -207 63 -134 160 -191 323
-192 117 0 196 21 240 65 l31 32 22 -21 c61 -56 188 -89 297 -77 102 11 167
40 227 102 l53 54 0 -33 c0 -50 32 -96 73 -103 18 -4 125 -5 238 -3 199 3 205
4 264 31 65 30 118 75 141 119 8 16 19 28 24 28 6 0 10 -74 10 -193 0 -211 3
-223 59 -247 19 -7 64 -11 121 -9 89 4 93 5 121 37 28 31 29 37 29 125 l0 92
83 1 c68 0 90 4 133 26 52 28 107 81 119 117 5 18 13 13 68 -43 82 -83 132
-101 277 -100 101 1 210 21 250 46 14 9 23 7 45 -10 24 -19 40 -22 122 -22
104 0 142 14 162 57 7 15 11 102 11 224 0 186 1 200 18 197 15 -3 17 -22 20
-206 3 -222 7 -239 62 -262 18 -7 65 -11 124 -8 147 5 140 -9 144 299 2 159
-1 271 -8 305 -14 67 -61 130 -120 163 -56 31 -162 39 -245 19 -41 -11 -89
-14 -152 -10 -107 5 -145 -6 -165 -49 l-14 -28 -36 29 c-61 50 -112 65 -223
64 -132 -1 -197 -25 -274 -102 -30 -30 -57 -50 -59 -44 -10 32 -67 94 -107
118 -59 34 -154 43 -240 22 -41 -11 -91 -14 -158 -10 -89 4 -101 2 -128 -17
l-29 -21 -15 37 c-38 91 -105 154 -200 188 -40 14 -90 18 -255 21 -113 2 -215
0 -226 -5z m482 -118 c90 -48 135 -140 149 -303 8 -103 -9 -248 -36 -310 -11
-25 -37 -62 -57 -83 -56 -57 -103 -67 -319 -67 l-183 0 0 396 0 395 203 -3
c185 -3 205 -5 243 -25z m-1301 -176 l50 -13 3 -47 3 -47 -101 0 c-124 0 -151
-11 -175 -75 -13 -34 -16 -65 -13 -127 5 -90 24 -139 61 -160 24 -13 157 -17
200 -5 27 7 27 7 27 -41 0 -43 -3 -50 -27 -62 -41 -18 -184 -25 -237 -10 -92
25 -146 95 -167 215 -29 169 38 336 151 372 48 15 165 15 225 0z m532 1 c32
-8 61 -25 94 -57 59 -58 79 -119 79 -243 0 -119 -24 -189 -84 -244 -52 -47
-103 -64 -199 -64 -83 0 -151 24 -197 70 -110 110 -100 408 16 496 17 13 48
30 70 38 48 18 159 20 221 4z m1494 -10 c66 -37 99 -134 99 -292 0 -91 -20
-183 -51 -232 -42 -68 -156 -92 -279 -59 -30 8 -56 15 -57 15 -2 0 -3 -63 -3
-140 l0 -140 -70 0 -70 0 0 425 0 425 51 0 c36 0 55 -5 63 -16 11 -14 19 -13
86 10 97 33 178 34 231 4z m597 6 c88 -36 122 -107 122 -256 l0 -88 -185 0
-185 0 0 -25 c0 -47 26 -91 61 -106 37 -15 129 -18 227 -7 l63 8 -3 -47 c-3
-44 -5 -47 -43 -60 -58 -21 -222 -29 -271 -13 -70 22 -110 55 -140 117 -25 51
-29 71 -32 168 -3 94 -1 118 18 167 25 67 89 131 148 146 59 16 178 14 220 -4z
m683 -7 c65 -43 69 -63 69 -334 l0 -243 -64 0 -65 0 -3 226 -3 226 -25 20
c-22 18 -33 19 -94 13 -38 -3 -79 -11 -92 -15 l-24 -10 0 -230 0 -230 -70 0
-70 0 0 290 0 290 54 0 c46 0 56 -3 61 -20 5 -17 9 -18 28 -8 49 26 136 47
198 47 53 1 73 -4 100 -22z m-3297 -203 l46 -7 0 -78 0 -77 -64 -7 c-35 -4
-78 -4 -95 0 l-31 7 0 78 c0 53 4 80 13 83 18 8 78 8 131 1z"/>
<path d="M1720 915 l0 -277 98 4 c109 5 144 18 172 62 43 71 52 300 15 394
-28 69 -60 85 -181 90 l-104 5 0 -278z m191 148 c10 -12 14 -51 14 -148 0
-154 -5 -165 -71 -165 l-44 0 0 165 0 165 44 0 c28 0 48 -6 57 -17z"/>
<path d="M1105 1003 c-58 -14 -85 -74 -85 -193 0 -94 14 -143 46 -169 61 -48
163 -33 198 29 28 47 29 227 2 278 -26 50 -91 72 -161 55z"/>
<path d="M2515 996 l-50 -11 0 -175 0 -175 63 -8 c142 -19 172 13 172 186 0
187 -32 219 -185 183z"/>
<path d="M3174 1004 c-36 -8 -66 -49 -71 -98 l-6 -46 122 0 121 0 0 44 c0 65
-31 98 -96 101 -27 2 -59 1 -70 -1z"/>
</g>
</svg>
